<svg xmlns="http://www.w3.org/2000/svg" viewBox="0 0 272.59 92.83"><defs><style>.cls-1{fill:#f18a8b;}.cls-2{fill:#811918;}.cls-3{fill:#e08788;}.cls-4{fill:#fff;}.cls-5{fill:#d17e7f;}</style></defs><g id="Layer_2" data-name="Layer 2"><g id="Layer_2-2" data-name="Layer 2"><path id="tongue" class="cls-1" d="M56.18,31a111.29,111.29,0,0,1,47.48-9.71c19.24.56,32.09-.23,53.88,0s39.83,0,53.61,7.66c13.13,7.31,20.81,12.3,23.52,15.47s-1.49,5.47-1.49,5.47,2.39,9.76-19.73,22.41S161,90.62,141.28,90.16,81.81,82.07,65.59,73,39.78,58.64,35.65,54.29C32.77,51.27,18.68,48.76,56.18,31Z"/><path id="mouth-inside" class="cls-2" d="M140.57,12.43s-28.34,2.05-57.95,5.37S3.32,43,3.32,43,32.9,55.9,44.18,65.34s28.67,16.89,68.17,18.23,54.38,9,73.27-5.11,47.59-12.23,57.7-22.76S268.22,43,268.22,43s-27.31-13.94-44.41-17.53-44.68-11-58.47-12.27A198.71,198.71,0,0,0,140.57,12.43Z"/><path id="lip-upper" class="cls-3" d="M15.07,44.78S0,43.92,0,43.91C2.51,42.43,73.36,12,91.41,5.78c32.17-11.07,38.22-1.61,45-1.87s6.74-9.2,43.73.85c24.92,6.77,83.61,35.16,92.4,39.36.71.34-2.86-.17-3.63-.25-16-1.68-46.73-1-46.9-1-2.88-.62-39-.9-63.66,0h-54c-8.11,0-29.1,0-39.1,0Z"/><path id="teeth" class="cls-4" d="M91,54.55c13.26-1.24,61.55,1.2,81.74-.68,22.92-2.13,25.48,2.47,25.48,2.47s8.75,2.46-16,8.08S130.73,74.82,110.56,70,83.68,62.12,83.38,59.93C83.14,58.19,79.81,55.6,91,54.55Z"/><path id="lip-lower" class="cls-5" d="M2.65,43c-.47.11-2.78.68-2.39,1,8.81,6.66,42.55,30,77.7,40.84,38.53,11.91,42.75,7.06,59.6,7,25.57-.09,30.62,6,77.93-14.87a299.67,299.67,0,0,0,57-32.81l-5-.58s-17.56-.79-35.09-.23c-13.36,0-24.74-.46-41.77-.46-12.73,0-22.26.93-37.21,1.12s-24.06-.29-37.27,0c-14.44.31-24.64,0-35.11-.49-14-.64-31.15.71-41.75.77C32.6,44.29,5.23,46.06,2.65,43Z"/></g></g></svg>