<svg xmlns="http://www.w3.org/2000/svg" viewBox="0 0 204.26 156.84"><defs><style>.cls-1{fill:#801918;}.cls-2{fill:#d17e7f;}.cls-3{fill:#e18687;}</style></defs><g id="Layer_2" data-name="Layer 2"><g id="Layer_1-2" data-name="Layer 1"><path class="cls-1" d="M100.58,28.13s-16.4-2.86-36.69,10.25S16.48,63.72,15.66,71.71s27.12,42.91,46.8,53,50,16.4,76.44-.2,54.88-44.41,50.8-54.94-36.45-33.19-58.79-38.31S100.58,28.13,100.58,28.13Z"/><path class="cls-2" d="M0,70.89s13.24,23.68,42.55,57.36c22.93,26.34,48.41,28.59,60.09,28.59s40.36-3.69,66.8-37.71,34.82-48.07,34.82-48.07-27.18-.56-33.54,3.74-20.48,18.25-27.66,25.83-18.3,14.78-39.61,14.68S75.82,111.46,65.57,102s-17.91-23-30.94-27C25.62,72.19,33.75,73.14,0,70.89Z"/><path class="cls-3" d="M0,70.89S27.69,35.1,46.27,20.35,71.07,0,82.82.26s15.57,6.29,20.49,6.83,7.91-8.73,21-6.84c18.55,2.68,37.58,24.06,49.19,34.58,10.86,9.84,30.72,36.23,30.72,36.23a163.71,163.71,0,0,0-22.88,1.31c-11.5,1.57-17.1-1.6-27.21-11.44s-26-21.06-51.75-20.7c-11.2.15-34.16.91-48.21,14.7C42.94,66,36.55,70.67,30,71.48,17.36,73.07,0,70.89,0,70.89Z"/></g></g></svg>