<svg xmlns="http://www.w3.org/2000/svg" viewBox="0 0 272.58 154.91"><defs><style>.cls-1{fill:#811918;}.cls-2{fill:#e08788;}.cls-3{fill:#f18a8b;}.cls-4{fill:#fff;}.cls-5{fill:#d17e7f;}</style></defs><g id="Layer_2" data-name="Layer 2"><g id="Layer_2-2" data-name="Layer 2"><path id="mouth-inside" class="cls-1" d="M140.57,19.7s-28.34,2-57.95,5.36S3.32,50.23,3.32,50.23,20.24,73.31,31.51,82.76,68.74,123,108.23,124.31s69.62,4.61,88.51-9.53S246.22,77.51,256.33,67s11.89-16.72,11.89-16.72-27.31-13.94-44.41-17.53-44.68-11-58.47-12.27A197.41,197.41,0,0,0,140.57,19.7Z"/><path id="lip-upper" class="cls-2" d="M15.83,48.62,0,51.17C2.51,49.69,72.6,10.83,90.65,4.62c32.16-11.07,38.42,1.25,45.14,1s8.54-11.07,45.53-1c24.92,6.77,82.38,42.58,91.17,46.78.71.34-2.88-.06-3.63-.25C256,47.83,222.13,42.7,222,42.66c-2.88-.61-24.17-3.54-49.87-4.94l-59.57-.17c-8.12,0-35.29.78-43.24,2.39Z"/><path id="tongue" class="cls-3" d="M56.18,67.34a111.29,111.29,0,0,1,47.48-9.71c19.24.55,32.09-.23,53.88,0s39.83,0,53.61,7.66c13.13,7.3,20.81,12.3,23.52,15.47s-1.49,5.46-1.49,5.46,2.39,9.76-19.73,22.42S161,127,141.28,126.52s-59.47-8.08-75.69-17.2S39.78,95,35.65,90.66C32.77,87.63,18.68,85.13,56.18,67.34Z"/><path id="teeth" class="cls-4" d="M91,109c13.26-1.24,61.55,1.2,81.74-.68,22.92-2.13,25.48,2.47,25.48,2.47s8.75,2.46-16,8.08-51.52,10.4-71.69,5.62-26.88-7.92-27.18-10.11C83.14,112.69,79.81,110.09,91,109Z"/><path id="lip-lower" class="cls-5" d="M2.65,50.26c-.47.11-2.64.56-2.39,1,4.63,7.54,31.94,55.27,62.55,75.69,26.3,17.53,47.14,26.92,72.68,27.91s59.92-6.55,98.81-48.94a252.74,252.74,0,0,0,38.19-54.51l-5-.58s-7.11,9.73-23.33,22.92-53.25,34.07-64.42,38c-12,4.22-27.46,7.78-42.4,8s-30.16-3.6-43.4-9.34-33.44-19.22-43.28-25c-12.06-7.08-17.11-11.23-30.51-20C14.56,61.61,5.23,53.32,2.65,50.26Z"/></g></g></svg>