<svg xmlns="http://www.w3.org/2000/svg" viewBox="0 0 350.23 160.21"><defs><style>.cls-1{fill:#801918;}.cls-2{fill:#f38b8c;}.cls-3{fill:#fff;}.cls-4{fill:#d17e7f;}.cls-5{fill:#e18687;}</style></defs><g id="Layer_2" data-name="Layer 2"><g id="Layer_1-2" data-name="Layer 1"><path class="cls-1" d="M153.11,16.49s-28.09-3-62.87,10.9S9,54.34,7.59,62.85s66.58,47.7,100.3,58.38,69.4,27.92,117.54,19.68c46.16-8.4,126.46-67.63,119.46-78.83S243.38,25.21,205.1,19.76,153.11,16.49,153.11,16.49Z"/><path class="cls-2" d="M126.1,76c46.57,1.05,64.71-3.19,94.34-.89,27.16,2.09,52.83,2,69.06,26.76,1.86,2.84-13.38,21.21-29.61,26.72-26.68,9.06-44.71,11.26-73.38,11s-29.23,2.26-66-9.49c-33.1-10.58-73.8-29.94-57-39.15A122.82,122.82,0,0,1,126.1,76Z"/><path class="cls-3" d="M83.55,87.4c18.55,2.34,104,6.09,139.06,2.86a402.32,402.32,0,0,1,60.94-.86s.66,17.34-39.47,28.38-84.92,9.83-117.68.38S90.52,103.87,83.69,100C79.46,97.23,65.29,88.13,83.55,87.4Z"/><path class="cls-4" d="M.18,61.24s32.66,33.43,72.47,61.87c35.75,25.53,83.41,37.1,103.43,37.1s86.19-10.72,120.4-44.08c45.17-44,53.75-54.69,53.75-54.69s-16.6-13.51-47.49,12.65c-11,9.32-36.86,19.54-53.24,24.51-15.1,4.58-36.53,10.6-73.06,10.48s-39.28-.44-60.38-7.93C91.12,92.3,82,87.4,61.59,77,39.63,65.74,11.67,56,.18,61.24Z"/><path class="cls-5" d="M6.57,62.81c-1.38.23-7.72-1-6.39-1.39C18.35,56,45.86,37.69,69.25,26.6,99.87,12.06,120.91.42,141.05.66s25.85,3.6,34.28,4.08,15.57-6.54,38-4.29c23.15,2.32,57.66,24.72,77.55,34,14.69,6.83,46.13,22,58.49,27,1.23.5-2.81,1.46-4.14,1.38-7.44-.4-21,3-35.79-.36-22.21-5.07-31.32-5.76-45.45-8.14-35.07-5.91-64.35-7.92-90.05-7.86-35.18.08-35.63,2.18-68.76,4.8-32.34,2.55-23.66,5.61-60.59,9.36C30.29,62.09,15.1,61.38,6.57,62.81Z"/></g></g></svg>