<svg xmlns="http://www.w3.org/2000/svg" viewBox="0 0 260.94 172.6"><defs><style>.cls-1{fill:#801918;}.cls-2{fill:#f38b8c;}.cls-3{fill:#d17e7f;}.cls-4{fill:#e18687;}</style></defs><g id="Layer_2" data-name="Layer 2"><g id="Layer_1-2" data-name="Layer 1"><path class="cls-1" d="M128.49,31s-21-3.16-46.87,11.28S21.06,70.12,20,78.91s34.65,47.22,59.78,58.27,63.88,18,97.66-.22,70.11-48.87,64.89-60.45S195.78,40,167.24,34.34,128.49,31,128.49,31Z"/><path class="cls-2" d="M103.91,68.16c21.72-8.26,46.47-4.84,55.92.52s44.17,33.19,44.43,36.77-4.6,21.44-20.69,26.55-29.87,10-46.46,9.7-42-2.09-63.32-15.06C54.63,115,51,107.22,61,98.06,73.12,86.94,93.49,72.12,103.91,68.16Z"/><path class="cls-3" d="M0,78s14.13,26.63,51.57,63.69c29.3,29,64.63,30.9,79.55,30.9S184.27,169.44,218,132s42.9-53.81,42.9-53.81-30.39-5.42-43.41,2.49c-8,4.88-24.76,22-36.76,29.11-10.65,6.34-21.84,13.13-49.07,13S96.61,118,82.21,109C68,100.2,56.23,82.66,39.57,78.19,28.08,75.11,35.74,76.38,0,78Z"/><path class="cls-4" d="M0,78S31.86,38.2,55.6,22,90.79,0,105.8.29,125.7,7.2,132,7.81,142.08-1.8,158.86.28c23.69,2.94,50,23.38,64.8,34.95,13.88,10.84,37.28,43,37.28,43A246.83,246.83,0,0,0,228.82,76c-14.78.12-23-4.48-34.06-10.76-14.64-8.34-25-21.82-63.34-22.57-26.23-.51-43.37,3.7-62.16,17.81-11.47,8.6-22.9,15-31.22,15.93C21.84,78.12,0,78,0,78Z"/></g></g></svg>