<svg xmlns="http://www.w3.org/2000/svg" viewBox="0 0 350.23 162.11"><defs><style>.cls-1{fill:#801918;}.cls-2{fill:#f38b8c;}.cls-3{fill:#fff;}.cls-4{fill:#d17e7f;}.cls-5{fill:#e18687;}</style></defs><g id="Layer_2" data-name="Layer 2"><g id="Layer_1-2" data-name="Layer 1"><path class="cls-1" d="M153.11,11.75s-23.22,6.65-58,20.61-70.59,23.85-72,32.35,51.05,41.1,84.77,51.79,69.4,27.92,117.54,19.67c46.16-8.4,93.66-60.35,86.66-71.54S243.38,20.47,205.1,15,153.11,11.75,153.11,11.75Z"/><path class="cls-2" d="M126.1,71.22c46.57,1,64.71-3.19,94.34-.89,27.16,2.09,52.83,2,69.06,26.76,1.86,2.84-13.38,21.22-29.61,26.73-26.68,9.05-44.71,11.25-73.38,11s-29.23,2.27-66-9.49c-33.1-10.58-73.8-29.94-57-39.15A122.92,122.92,0,0,1,126.1,71.22Z"/><path class="cls-3" d="M73.52,82.66C93,85,182.73,88.75,219.55,85.52a442.73,442.73,0,0,1,64-.85S284.25,102,242.1,113s-89.18,9.83-123.58.38S80.85,99.14,73.67,95.3C69.23,92.5,54.35,83.39,73.52,82.66Z"/><path class="cls-4" d="M.18,56.72S39,102.22,78.78,132.5c35.74,27.19,77.28,29.61,97.3,29.61s85.41-8,121.25-51.57c41.36-50.29,52.9-53.61,52.9-53.61s-35.79-10-66.68,17.9c-11,9.93-17.67,16.38-34.05,21.67-15.1,4.88-36.53,11.29-73.06,11.16s-39.28-.47-60.38-8.44C91.12,89.79,82,84.58,61.59,73.48,39.63,61.51,11.67,51.11.18,56.72Z"/><path class="cls-3" d="M89.5,53.35c20.43,1,49.79,4.39,84.26,4.39,32.32,0,87.05-4.12,87.05-4.12s8.07-11.82-31.13-22.86-83-9.83-115-.38-9.26,1.29-15.94,5.13C94.65,38.31,71.67,52.62,89.5,53.35Z"/><path class="cls-5" d="M6.57,58.16c-1.38.21-7.72-.92-6.39-1.29C18.35,51.89,45.59,41.6,66,26.79,93.09,7.16,120.91.39,141.05.61s25.85,3.33,34.28,3.78,15.57-6.06,38-4c23.15,2.15,65.15,28,85,36.6,14.69,6.32,38.64,15.2,51,19.9,1.23.46-2.81,1.35-4.14,1.28-7.44-.37-22.33,9-37.15,5.88-22.22-4.69-39.28-5.29-53.11-8.91-34.21-9-54.65-7.49-80.34-7.43-35.18.08-37-1.48-69.79,3.58-25,3.85-13.1,7.76-50,11.23C40.5,63.88,15.1,56.83,6.57,58.16Z"/></g></g></svg>