<svg xmlns="http://www.w3.org/2000/svg" viewBox="0 0 356.95 136.36"><defs><style>.cls-1{fill:#801918;}.cls-2{fill:#f38b8c;}.cls-3{fill:#fff;}.cls-4{fill:#d17e7f;}.cls-5{fill:#e18687;}</style></defs><g id="Layer_2" data-name="Layer 2"><g id="Layer_1-2" data-name="Layer 1"><path class="cls-1" d="M154.83,11.41s-23.22,5.68-58,17.58-70.59,20.36-72,27.61,51.05,35.08,84.77,44.19,69.4,23.83,117.55,16.79c46.15-7.17,93.65-51.5,86.66-61s-68.72-37.68-107-42.33S154.83,11.41,154.83,11.41Z"/><path class="cls-2" d="M127.81,62.16c46.58.9,64.71-2.73,94.34-.76,27.17,1.78,52.84,1.66,69.07,22.83,1.86,2.43-13.39,18.11-29.62,22.81-26.68,7.72-44.7,9.6-73.38,9.4s-29.23,1.94-66-8.1c-33.11-9-73.8-25.54-57-33.4C87.13,64.65,109.05,61.79,127.81,62.16Z"/><path class="cls-3" d="M65.77,62.81c19.48,2,108.25,7.32,148.63,5.77,41.82-1.61,88.3-5.77,88.3-5.77s-13.13,18.93-55.27,28.35-89.18,8.39-123.58.32S86.17,79.29,79,76C74.56,73.63,46.6,63.43,65.77,62.81Z"/><path class="cls-4" d="M.15,50.09S36.57,83.28,76.74,107c49.79,29.38,84.15,29.36,104.17,29.36s69.53,2.34,125.88-45.19C351,53.89,357,49.72,357,49.72s-40.8-7.84-71.69,14.52c-11,8-17.67,13.15-34,17.39-15.1,3.92-36.55,10.19-73.06,9-28-.94-37.54-2.1-58.65-8.5C94.57,74.52,85.37,69.72,65,60.81,43,51.2,11.64,45.59.15,50.09Z"/><path class="cls-3" d="M49.9,52.09C79.26,66.75,153.07,67,188.47,67c82.2,0,116.06-14.73,116.06-14.73S276.84,41.6,236.58,32.17s-90.37-13.68-123.23-5.61S85.6,31.45,78.74,34.73C74.5,37.11,43,43.41,49.9,52.09Z"/><path class="cls-5" d="M8.28,51c-1.37.18-9.47-.4-8.13-.71,18.17-4.25,58.33-18,80.68-26.81C112.49,11,136.27-.19,156.4,0s12.22,4.75,20.65,5.12,12-7.16,38-3.39c23,3.35,65.15,23.92,85,31.23,14.69,5.4,43.65,12.82,56,16.83,1.23.4-2.81,1.15-4.14,1.1-7.44-.33-28.29,4.76-43.11,2.09-22.21-4-37.36-3.61-51.45-5.18-28.34-3.17-55.36-2-81.06-2-35.17.07-49-.25-67.28,1-25.17,1.76-23.44,3.3-60.38,6.26C34.38,54.25,16.81,49.88,8.28,51Z"/></g></g></svg>