<svg xmlns="http://www.w3.org/2000/svg" viewBox="0 0 190 130.33"><defs><style>.cls-1{fill:#801918;}.cls-2{fill:#fffef5;}.cls-3{fill:#e18687;}.cls-4{fill:#d17e7f;}</style></defs><g id="Layer_2" data-name="Layer 2"><g id="Layer_1-2" data-name="Layer 1"><path class="cls-1" d="M92.27,23.53s-15.59-2.4-34.89,8.58S20,54.22,19.17,60.9,37.3,95.88,56,104.28s47.57,13.71,72.71-.18S177.82,67,173.94,58.22s-31.57-27.83-52.82-32.11S92.27,23.53,92.27,23.53Z"/><path class="cls-2" d="M30.49,53.57l4.85,3.32S49.38,61,62.92,61s64.59-1,72-1.27,21.44-1.54,23.74-4-4.85-10.09-25.28-22.6-65.87-5.87-72.25-3.83S31,36,30.24,42.33A38.1,38.1,0,0,0,30.49,53.57Z"/><path class="cls-3" d="M0,58.5S22.94,29.36,40.61,17,64.2,0,75.38.22,90.19,5.48,94.87,5.93s7.52-7.3,20-5.72c17.65,2.24,35.75,20.13,46.79,28.92C172,37.37,190,58.5,190,58.5a190.19,190.19,0,0,0-19.49,1.38c-10.94,1.31-28.32-3.26-38.4-10.91-6.56-5-20.29-8.58-37.11-9.45C86.65,39.1,67.92,43,58.58,50c-11.26,8.45-18,8.09-30,10S0,58.5,0,58.5Z"/><path class="cls-2" d="M30,67.93l4.12-2.36a278.82,278.82,0,0,1,29.33-2c13.54,0,64.6,1,72,1.27s23-.45,25.3,2-6.4,12.07-26.83,24.58S68,97.29,61.62,95.24s-30.13-6.63-30.9-13S30,67.93,30,67.93Z"/><path class="cls-4" d="M0,58.5s16.63,33.6,42.17,52.29,40.35,19.54,51.47,19.54,39-2.23,64.13-30.68S190,58.5,190,58.5,165.47,57,159.43,60.59s-19.65,10.69-28.09,16.72c-7.58,5.42-16.13,10.82-34.59,11.5-13.43.5-22-1.13-32.81-7.41C52.7,74.89,41.72,65.25,33.55,62S32.1,60.39,0,58.5Z"/></g></g></svg>