<svg xmlns="http://www.w3.org/2000/svg" viewBox="0 0 355.28 166.05"><defs><style>.cls-1{fill:#801918;}.cls-2{fill:#f38b8c;}.cls-3{fill:#fff;}.cls-4{fill:#d17e7f;}.cls-5{fill:#e18687;}</style></defs><g id="Layer_2" data-name="Layer 2"><g id="Layer_1-2" data-name="Layer 1"><path class="cls-1" d="M172.36,15.56S142.67,12.36,105.93,27,20.07,55.2,18.59,64.11s49.11,47.8,84.74,59,90.56,18.26,138.43-.23,99.39-49.48,92-61.2-66-37-106.47-42.69S172.36,15.56,172.36,15.56Z"/><path class="cls-2" d="M124.43,56.3c35.53-4.58,79.25-2.8,96-.68,35.72,4.52,70.56,7.82,75.6,17.7,2.35,4.6-14,13.62-31.35,16.68-25.39,4.48-51.93,9-78.3,8.85s-51.74,0-86-6.65C67.91,85.92,51.39,74.06,67.25,67.93,86.5,60.5,107.72,58.45,124.43,56.3Z"/><path class="cls-3" d="M61.15,84.86c43.53,11.61,130.53,11.52,168.49,8.34,57.14-4.77,73.85-.35,73.85-.35s-.4,15.72-48.12,28.45-105.45,9.89-134.82,2c-39-10.47-31.2-8.37-47.46-15.2C69.06,105.34,34.27,84.8,61.15,84.86Z"/><path class="cls-3" d="M95.48,42.9c41.05,7.29,97.85-1.38,133.31-.63,29.41.63,43,4.85,43,4.85s59.31,6.77,15.61,14C231.71,70.22,168.62,72.15,108,66.63c-26.1-2.38-53-7.25-49.81-12.94C57.79,50.71,71.14,42.85,95.48,42.9Z"/><path class="cls-4" d="M0,55.8s42.38,54.9,76.09,78.46c51,35.63,83.85,31.66,104.16,31.66s70.64-1.95,116.62-46.24S355.28,56,355.28,56s-12.12-7.9-27.28,5.39c-21.79,19.1-57.25,40.68-73.87,46.29-15.33,5.18-40,8-77.1,7.83s-40.62-.77-63.84-6.12C91.8,104.47,76.47,94,55,81.15,40.93,72.78,28.77,56.64,0,55.8Z"/><path class="cls-5" d="M0,55.25S41.83,38.11,73,25,131.73.14,152.17.36s17,3.83,25.6,4.26,8.85-6.26,31.6-4.24c23.5,2.09,56.64,21.66,77,29.54,20,7.73,68.91,25.47,68.91,25.47s-8.42,10.49-30.85,8.15c-13-1.37-29.11-5.57-54-9.65-33.84-5.55-68.43-5.35-95.66-5.08-37.78.38-51.06-1-75.58,2C81.58,53,44.78,62.78,33.45,63.42,11.4,64.68,0,55.25,0,55.25Z"/></g></g></svg>