<svg xmlns="http://www.w3.org/2000/svg" viewBox="0 0 272.59 65.27"><defs><style>.cls-1{fill:#f18a8b;}.cls-2{fill:#811918;}.cls-3{fill:#fff;}.cls-4{fill:#d17e7f;}.cls-5{fill:#e08788;}</style></defs><g id="Layer_2" data-name="Layer 2"><g id="Layer_2-2" data-name="Layer 2"><path id="tongue" class="cls-1" d="M56.18,23.06a111.29,111.29,0,0,1,47.48-9.71c19.24.56,32.09-.23,53.88,0s39.83,0,53.61,7.66c13.13,7.3,20.81,12.3,23.52,15.47S233.18,42,233.18,42s-5.09,6.29-26.2,12.78a204.1,204.1,0,0,1-65.75,9.34c-19.75-.45-50.71.8-68.71-3.91-14.3-3.75-32.74-9.45-36.87-13.79C32.77,43.35,18.68,40.85,56.18,23.06Z"/><path id="mouth-inside" class="cls-2" d="M139.75,22.94s-20.36-.08-48.48,2.15S12,36.29,12,36.29s29.88,9.72,43.06,13c10.34,2.56,32.41,2.42,68.44,4.48,37.39,2.15,49.44.35,62.17-1.12,22.12-2.54,29.53-4,46.82-8.83,12.9-3.59,31-7.49,31-7.49s-31.88-5.45-48.12-7.87S182.89,26,169.8,25.09,139.75,22.94,139.75,22.94Z"/><path id="teeth" class="cls-3" d="M91,46.64c13.26-1.25,61.55,1.19,81.74-.68,22.92-2.13,25.48,2.46,25.48,2.46s8.75,2.47-16,8.09-51.52,10.39-71.69,5.62S83.68,54.2,83.38,52C83.14,50.28,79.81,47.69,91,46.64Z"/><path id="lip-lower" class="cls-4" d="M2.59,35.13c-.47.11-2.78.68-2.39,1C9,42.76,40.66,54.64,76.77,61.7c29.62,5.79,42.68,2.39,59.52,3s39.32,2.55,76.19-9.18c35.34-11.23,60-19.31,60-19.31l-5-.58c-17.78-.8-17.38-.8-35.09-.23C219,35.46,207.62,35,190.6,35c-12.73,0-22.27.93-37.21,1.12s-24.06-.29-37.28,0c-14.43.31-24.63-.28-35.1-.48-18.58-.37-31.08.2-41.68.27C32.61,35.93,11.23,36.33,2.59,35.13Z"/><path id="lip-upper" class="cls-5" d="M15.07,36.87S0,36,0,36C2.51,34.52,73.19,12.25,91.24,6,123.41-5,129.47,2.55,136.2,2.3s10-6.31,47,3.74c24.93,6.77,80.55,26,89.34,30.17.71.34-2.86-.22-3.63-.25-17.49-.88-45.24-.24-45.41-.25-2.94-.18-41,1.1-65.66,2H104.35c-8.12,0-32.22-1.36-42.22-1.36Z"/></g></g></svg>