<svg xmlns="http://www.w3.org/2000/svg" viewBox="0 0 352.83 153.9"><defs><style>.cls-1{fill:#801918;}.cls-2{fill:#f38b8c;}.cls-3{fill:#fff;}.cls-4{fill:#d17e7f;}.cls-5{fill:#e18687;}</style></defs><g id="Layer_2" data-name="Layer 2"><g id="Layer_1-2" data-name="Layer 1"><path class="cls-1" d="M172.36,14.42s-29.69-3-66.43,10.58S20.07,51.16,18.59,59.42s49.11,44.3,84.74,54.67,90.56,16.93,138.43-.21S345.29,67.32,337.9,56.45,267.74,22.89,227.29,17.6,172.36,14.42,172.36,14.42Z"/><path class="cls-2" d="M134.57,49.12c29.85-8.8,66.57-5.38,80.63-1.31,30,8.68,67.78,22.76,72,41.75,2,8.84-20.26,18.45-34.85,24.34-21.32,8.61-42.33,12.76-64.47,12.43s-41.16.52-70-12.26C90.7,102,60.19,91.14,73.51,79.36,89.68,65.07,120.54,53.26,134.57,49.12Z"/><path class="cls-3" d="M63.3,77.56c57.19,11,133.1,9.84,171.07,6.9,57.13-4.43,69.12-3.83,69.12-3.83s-.4,20-48.12,31.8-105.45,9.16-134.82,1.87c-39-9.71-31.2-7.76-47.46-14.09C69.06,97.64,36,73.48,63.3,77.56Z"/><path class="cls-3" d="M129.43,26.39c31.4-.62,62.83-.4,90.59.3,23,.57,33.7,4.49,33.7,4.49s24.8,10.64,12.22,12.93c-43.73,8-94.13,8.94-140.48,5.15-20.49-1.67-41.47-6.71-39-12C86.13,34.5,110.37,26.34,129.43,26.39Z"/><path class="cls-4" d="M0,56.62s42.38,46,76.09,67.82c51,33,83.85,29.34,104.16,29.34s70.64-1.81,116.62-42.86,56-54.22,56-54.22-19.27-1.48-33.6,7.46c-23.81,14.86-46.8,25.3-63.42,30.51-15.33,4.8-40,13.49-77,11.23-32.89-2-41-4.23-64.19-9.19C93.23,92.14,76.47,87.09,55,75.22,40.93,67.45,35.47,54.84,0,56.62Z"/><path class="cls-5" d="M0,56.12s41.83-20.8,73-33S131.73.13,152.17.33s17,3.55,25.6,4,8.85-5.81,31.6-3.94c23.5,1.94,56.64,20.08,77,27.39,20,7.16,66.46,29,66.46,29s-6.38,2.48-30.38-.58c-13-1.66-27.13-2.39-52-6.17-33.84-5.14-68.43-5-95.66-4.71-37.78.35-51.06-.88-75.58,1.89-17.65,2-56,8.89-67.33,9.49C9.84,57.79,0,56.12,0,56.12Z"/></g></g></svg>