<svg xmlns="http://www.w3.org/2000/svg" viewBox="0 0 271.39 153.43"><defs><style>.cls-1{fill:#811918;}.cls-2{fill:#e08788;}.cls-3{fill:#f18a8b;}.cls-4{fill:#fff;}.cls-5{fill:#d17e7f;}</style></defs><g id="Layer_2" data-name="Layer 2"><g id="Layer_2-2" data-name="Layer 2"><path id="mouth-inside" class="cls-1" d="M139.75,22.66s-28.34,2-58,5.36S2.5,53.2,2.5,53.2,19.42,76.28,30.69,85.72s37.22,40.22,76.72,41.56,69.62,4.61,88.51-9.54S245.39,80.47,255.51,70,267.92,55,267.92,55,240.09,39.29,223,35.7s-44.68-11-58.46-12.27A198.71,198.71,0,0,0,139.75,22.66Z"/><path id="lip-upper" class="cls-2" d="M0,53.78s0,0,0,0c2.5-1.49,72.67-42.93,90.72-49.14,32.17-11.07,38.42,1.25,45.15,1s8.53-11.07,45.52-1c24.93,6.77,80.86,45,89.65,49.18.7.33.2,1.43-.55,1.24C257.61,51.72,214.16,39.14,214,39.1c-2.88-.61-16-4.83-41.73-6.23l-60.68-.25c-8.11,0-34.43,3.43-42.38,5Z"/><path id="tongue" class="cls-3" d="M61.08,67c9.87-4.68,26.33-7.4,45.56-6.84s26.05.49,47.83.73,38.76,0,52.66,5.7S227.52,78.78,230.23,82s3,4.28,3,4.28,2.38,9.76-19.74,22.42S161.11,127,141.37,126.52s-59.48-8.08-75.7-17.2S39.86,95,35.73,90.66C32.86,87.63,23.58,84.77,61.08,67Z"/><path id="teeth" class="cls-4" d="M91.09,109c11.23-.36,61.65,2.08,81.74-.68s24,2.25,24,2.25,10.22,2.68-14.49,8.3-51.53,10.4-71.7,5.62-26.88-7.92-27.18-10.11C83.23,112.69,79.85,109.41,91.09,109Z"/><path id="lip-lower" class="cls-5" d="M2.5,53.2c-.47.11-2.65.56-2.39,1,4.62,7.53,35.61,49.13,64.43,72,26.15,20.76,46.19,26.2,71.74,27.19s66.28-15.83,96.15-50.07c24.38-27.95,38.62-48.39,38.62-48.39l-5.28-1.15s-5.28,6.76-21.49,19.95-52.84,35.56-64.43,38-27.2,7-42.14,7.2a108.68,108.68,0,0,1-43.66-8.58C80.8,104.6,55.24,92.83,45.4,87.05,33.35,80,23.7,74.29,13.76,65A135.41,135.41,0,0,1,2.5,53.2Z"/></g></g></svg>