<svg xmlns="http://www.w3.org/2000/svg" viewBox="0 0 357.66 190.33"><defs><style>.cls-1{fill:#801918;}.cls-2{fill:#f38b8c;}.cls-3{fill:#fff;}.cls-4{fill:#d17e7f;}.cls-5{fill:#e18687;}</style></defs><g id="Layer_2" data-name="Layer 2"><g id="Layer_1-2" data-name="Layer 1"><path class="cls-1" d="M158,12.84s-29.69-3.5-66.43,12.51S15.47,62.3,4.23,66.05C-5.13,69.17,53.35,118.43,89,130.69s93.93,28.73,144.55,16C285.09,133.11,365,74.65,353.07,65.81c-10.77-8-99.68-43-140.13-49.21S158,12.84,158,12.84Z"/><path class="cls-2" d="M132.74,55.49c10-2.29,27.67-.05,46-.17,20.47-.13,41.36-1.72,49,.17,31.83,7.92,60.6,34,67.92,56.34,3.31,10.1-25.76,21.72-40.34,28.68-21.33,10.19-41.86,17.5-64,17.11s-57.19,0-79.49-9.43c-28.33-12-56.75-26.36-46-42.34C93.77,64.31,118.26,58.81,132.74,55.49Z"/><path class="cls-3" d="M89.71,123.77c45.6,8.65,106.12,7.75,136.39,5.43,45.55-3.49,55.11-3,55.11-3s-.32,15.77-38.36,25.06-84.08,7.22-107.5,1.47c-31.12-7.64-24.87-6.11-37.83-11.09C94.3,139.59,67.93,120.55,89.71,123.77Z"/><path class="cls-4" d="M.15,65.26s37.7,63.71,82.74,90c54.79,32,55.81,33.64,101.77,35,20.31.6,76.57-6.47,122.55-58.55s49.66-66.46,49.66-66.46S352,61.45,328,83.07c-22.59,20.31-46.47,33.73-63.09,40.34-15.33,6.09-48.57,17.87-79.18,16.92-33-1-54.54-4.84-80.42-14-20.88-7.42-32-17.28-55.1-30.3S10.37,63.59.15,65.26Z"/><path class="cls-5" d="M4.15,65.85c-1.06-.09-4.95-.11-4-.59,10-5,46.88-24.19,73.19-36.32C104.42,14.61,133.58-.23,154,0s17.57,2.8,26.13,3.28,9-4.81,31.74-2.6c23.5,2.29,59,21,79.32,29.62,16,6.8,54.05,27.71,66.3,34.73,1,.58-3.29,1-4.44.78-3.89-.58-12.11-2.88-23.05-4.53-13-2-28.93-5-53.79-9.41-33.83-6.08-71.32-5.19-98.55-4.89-37.78.42-53.61.13-78.13,3.41-17.65,2.35-50.3,3.63-66,9.19C17.57,65.2,8.72,66.22,4.15,65.85Z"/></g></g></svg>