<svg xmlns="http://www.w3.org/2000/svg" viewBox="0 0 272.59 73.72"><defs><style>.cls-1{fill:#f18a8b;}.cls-2{fill:#811918;}.cls-3{fill:#e08788;}.cls-4{fill:#fff;}.cls-5{fill:#d17e7f;}</style></defs><g id="Layer_2" data-name="Layer 2"><g id="Layer_2-2" data-name="Layer 2"><path id="tongue" class="cls-1" d="M56.18,23.06a111.29,111.29,0,0,1,47.48-9.71c19.24.56,32.09-.23,53.88,0s39.83,0,53.61,7.66c13.13,7.3,20.81,12.3,23.52,15.47S233.18,42,233.18,42s-5.09,6.29-26.2,12.78a204.1,204.1,0,0,1-65.75,9.34c-19.75-.45-50.71.8-68.71-3.91-14.3-3.75-32.74-9.45-36.87-13.79C32.77,43.35,18.68,40.85,56.18,23.06Z"/><path id="mouth-inside" class="cls-2" d="M137.88,15.23a484,484,0,0,0-51.07,3.2C57.2,21.75,3.32,35.06,3.32,35.06S34.8,49.48,48.69,54.32c10.89,3.81,34.05,6.7,72,9.76,39.38,3.19,58.89,3.41,68.42-.85,21.55-9.62,28.26-9.87,46.47-17,13.59-5.33,32.64-11.13,32.64-11.13S234.64,27,217.54,23.4s-34.22-3.69-48-5S137.88,15.23,137.88,15.23Z"/><path id="lip-upper" class="cls-3" d="M15.07,36.87S0,36,0,36C2.51,34.52,73.19,12.25,91.24,6,123.41-5,129.47,2.55,136.2,2.3s10-6.31,47,3.74c24.93,6.77,80.55,26,89.34,30.17.71.34-2.86-.17-3.63-.25-16-1.68-46.39-.62-46.56-.63-2.94-.18-39.53-.25-64.16.64l-54,.21c-8.12,0-31.75-.61-41.75-.61Z"/><path id="teeth" class="cls-4" d="M91,46.64c13.26-1.25,61.55,1.19,81.74-.68,22.92-2.13,25.48,2.46,25.48,2.46s8.75,2.47-16,8.09-51.52,10.39-71.69,5.62S83.68,54.2,83.38,52C83.14,50.28,79.81,47.69,91,46.64Z"/><path id="lip-lower" class="cls-5" d="M2.65,35.08c-.47.11-2.78.69-2.39,1C9.07,42.72,47.13,58.2,82.74,67.49,118,76.68,121.37,73,138.22,72.93c25.57-.09,33.53,2.56,78.3-14.46,34.66-13.18,56-22.26,56-22.26l-5-.59s-17.56-.79-35.09-.22c-13.36,0-24.74-.47-41.77-.47-12.73,0-22.26.94-37.21,1.13s-24.06-.29-37.27,0c-14.44.31-24.64,0-35.11-.49-14-.64-31.15.7-41.75.77C32.6,36.38,5.23,38.15,2.65,35.08Z"/></g></g></svg>