<svg xmlns="http://www.w3.org/2000/svg" viewBox="0 0 199.75 155.82"><defs><style>.cls-1{fill:#801918;}.cls-2{fill:#e18687;}.cls-3{fill:#d17e7f;}</style></defs><g id="Layer_2" data-name="Layer 2"><g id="Layer_1-2" data-name="Layer 1"><path class="cls-1" d="M97,28.13s-16.4-2.86-36.69,10.25S21,64.82,20.15,72.81s19.06,41.81,38.74,51.85,50,16.4,76.44-.2S187,80.13,182.86,69.6s-33.18-33.27-55.52-38.39S97,28.13,97,28.13Z"/><path class="cls-2" d="M0,69.94S24.12,35.1,42.7,20.35,67.5,0,79.25.26,94.82,6.55,99.74,7.09s7.91-8.73,21-6.84C139.33,2.93,158.36,24.31,170,34.83c10.86,9.84,29.78,35.11,29.78,35.11a177.44,177.44,0,0,0-20.49,1.64c-11.5,1.57-19.27-.41-29.38-10.24s-22.13-22-51-21.11c-11.2.34-29.51-1.44-43.86,14.14C44.29,66,42.63,69.44,30.06,71.74S0,69.94,0,69.94Z"/><path class="cls-3" d="M0,69.94s17.49,40.17,44.34,62.51,42.42,23.37,54.1,23.37,41-2.67,67.43-36.69,33.88-49.19,33.88-49.19S167.3,71.79,161,76.09s-17.62,13.12-24.8,20.7S121,114.62,99.67,114.52s-23.77-3.79-34-13.22S47.57,82.24,39,78.35,33.75,72.2,0,69.94Z"/></g></g></svg>