<svg xmlns="http://www.w3.org/2000/svg" viewBox="0 0 385.92 171.13"><defs><style>.cls-1{fill:#821a19;}.cls-2{fill:#e08788;}.cls-3{fill:#f28b8c;}.cls-4{fill:#fff;}.cls-5{fill:#d17e7f;}</style></defs><g id="Layer_2" data-name="Layer 2"><g id="Layer_1-2" data-name="Layer 1"><g id="Layer_2-2" data-name="Layer 2"><g id="Layer_2-2-2" data-name="Layer 2-2"><path class="cls-1" d="M200.28,28.75s-39.89,2-81.64,5.36S7.1,59.29,7.1,59.29,30.92,82.37,46.78,91.81s52.38,40.22,108,41.56,98,4.61,124.58-9.54S349,86.56,363.21,76.09s17.47-15,17.47-15-39.17-15.71-63.23-19.3-62.88-11-82.28-12.27Q217.77,28.35,200.28,28.75Z"/><path class="cls-2" d="M0,56.62l2-1.74C5.57,53.39,104.33,12,129.74,5.74,175-5.33,183.81,7,193.29,6.74s30-14.36,64.06-1C300.6,25.07,373.17,52,385.54,56.13c1,.33-.14,1.55-1.19,1.36-21.53-1.05-77.47-5.42-77.69-5.46-13.79-.91-37.59-2.08-73.8-3.48H153.2c-11.42,0-104.79,6.86-116.17,7.89Z"/><path class="cls-3" d="M92.73,79.19c13.89-4.68,37.06-7.4,64.12-6.84s36.67.49,67.32.73,54.56,0,74.12,5.7,23.18,11,27,14.2-4.58,12.53-4.58,12.53-4.11,7-35.25,19.64-51.93,14-79.71,13.56S122,130.63,99.19,121.51s-13.48-3.39-19.3-7.73C75.86,110.75,40,97,92.73,79.19Z"/><path class="cls-4" d="M87.88,90.14c25-.84,130.83,7,175.79,2.27,44.76-4.71,62.12,2.78,62.12,2.78s13.89,12-41.18,24.71-116.52,11.33-161.46.44S65.21,104.48,64.54,99.45C64,95.55,56.86,90.08,87.88,90.14Z"/><path class="cls-5" d="M13.28,56.58c-.66.11-13.64-.4-13.27,0,14.81,7,60.51,62.66,102.64,86.4,26.29,15.32,58.52,28.72,94.46,28.09,57.71-1,110.05-33.19,139.41-62.56,32.85-32.85,49-51.52,49-51.52H377.9s-9.55-3.83-30.66,12c-26.3,19.66-72.23,39.41-87.83,44.8s-30,8.1-50.19,9.7c-21,1.65-52.68-3.9-71.51-8.71-24-6.13-52.11-22.56-66-28.34-16.93-8.85-24.08-14.05-39.83-22.3C26.31,60.43,21.37,57.51,13.28,56.58Z"/></g></g></g></g></svg>