<svg xmlns="http://www.w3.org/2000/svg" viewBox="0 0 388.31 172.78"><defs><style>.cls-1{fill:#821a19;}.cls-2{fill:#f28b8c;}.cls-3{fill:#fff;}.cls-4{fill:#d17e7f;}.cls-5{fill:#e08788;}</style></defs><g id="Layer_2" data-name="Layer 2"><g id="Layer_1-2" data-name="Layer 1"><g id="Layer_2-2" data-name="Layer 2"><g id="Layer_2-2-2" data-name="Layer 2-2"><path class="cls-1" d="M198.43,35.85s-39.52,2-80.88,5.36S13.16,63.68,13.16,63.68,37.27,87.05,53,96.49s45.26,42.64,100.34,44,103,5.61,129.38-8.54,60.84-37.94,75-48.41S375,62.1,375,62.1s-30.73-8.62-54.56-12.21-68.25-12-87.47-13.27Q215.77,35.45,198.43,35.85Z"/><path class="cls-2" d="M91.87,86.29c13.77-4.68,36.72-7.4,63.54-6.84s36.32.49,66.7.73,60,1,79.38,6.7,23,11,26.74,14.2-4.54,12.53-4.54,12.53-4.08,7-34.92,19.64-57.4,13-84.93,12.56-82.95-8.08-105.57-17.2-13.35-3.39-19.11-7.73C75.16,117.85,39.58,104.06,91.87,86.29Z"/><path class="cls-3" d="M73,90.36c51.83,9.53,143.7,13.87,188.25,9.15,44.35-4.71,69-4.39,69-4.39s12.21,20.15-42.35,32.89S166.54,138.33,122,127.44,64.61,111.58,64,106.55C63.42,102.65,42.26,90.29,73,90.36Z"/><path class="cls-4" d="M13.16,63.68c-.65.11-13.52-.4-13.15,0,14.67,7,60,62.66,101.69,86.4,26.05,15.32,69.33,23.26,104.94,22.62,57.17-1,102.62-29.28,131.71-58.64,32.55-32.85,49.58-49,49.58-49h-7.57s-9.46-3.83-30.38,12C323.93,96.74,284.49,102,269,107.38s-45.2,11.08-65.27,11.23c-25.24.2-53.51-4.45-72.35-8.51C95.5,102.36,86.71,96.14,73,90.36c-16.78-8.85-19.31-10.64-34.91-18.9C32.52,67.76,21.17,64.61,13.16,63.68Z"/><path class="cls-3" d="M113.92,35.75c41.05,7.3,97.85-1.38,133.31-.63,29.42.63,43,4.85,43,4.85s47.69,9.31,4,16.49C238.52,65.61,168.39,63.54,107.79,58c-26.1-2.38-24.32-7.39-24.85-11.24C82.52,43.8,89.58,35.7,113.92,35.75Z"/><path class="cls-5" d="M0,63.72,2,62C5.52,60.49,112.58,11.06,137.75,4.85c44.86-11.07,49.68.65,59.07.4s23-12.33,56.68,1c42.85,19.33,122.17,53.78,134.43,58,1,.33-.14,1.55-1.18,1.36-21.34-1-74.48-7.53-74.7-7.57-13.66-.91-43.18-3.28-79.06-4.68l-96.26.59c-11.31,0-88.76,8.58-100,9.61Z"/></g></g></g></g></svg>