<svg xmlns="http://www.w3.org/2000/svg" viewBox="0 0 388.31 144.27"><defs><style>.cls-1{fill:#821a19;}.cls-2{fill:#f28b8c;}.cls-3{fill:#fff;}.cls-4{fill:#d17e7f;}.cls-5{fill:#e08788;}</style></defs><g id="Layer_2" data-name="Layer 2"><g id="Layer_1-2" data-name="Layer 1"><g id="Layer_2-2" data-name="Layer 2"><g id="Layer_2-2-2" data-name="Layer 2-2"><path class="cls-1" d="M198.43,24.67s-39.52,2-80.88,5.36S13.16,52.51,13.16,52.51,37.27,75.87,53,85.31s45.26,42.64,100.34,44,103,5.61,129.38-8.54,60.84-37.94,75-48.41S375,50.93,375,50.93,344.3,42.3,320.47,38.71s-68.25-12-87.47-13.27Q215.77,24.29,198.43,24.67Z"/><path class="cls-2" d="M98.81,78.57c13.76-3.7,29.74-9.19,56.56-8.74s43-.73,76.34,0c26.82.59,46.35,5,65.72,8.3,19.62,3.38,15.57,14,15,18.51-.51,4.24-28.4,12.67-28.4,12.67s13.48-5.42-17.36,4.6-35.32,7.26-62.85,6.88-77.17-10.24-99.79-17.45S93.72,102,88,98.52C84,96.12,46.51,92.64,98.81,78.57Z"/><path class="cls-3" d="M80.05,72.34c34.47,1.48,135.32,6.59,178.72,3.41,65.32-4.77,69.71,2,69.71,2s14.26,13.37-40.29,26.1-120.57,9.88-154.14,2C89.42,95.4,98.39,97.5,79.79,90.67,75.19,87.89,49.32,72.28,80.05,72.34Z"/><path class="cls-4" d="M13.16,52.51c-.65.11-13.52-.4-13.15,0C15.83,62.78,51.62,94.84,94.42,117c35.84,22.43,76.89,29.06,112.44,26.85,49.36-3.06,89.69-18.6,122.35-43.92,35.61-27.6,58.72-46,58.72-46h-7.57S355.79,48,341.24,58.25c-26.72,18.75-50.93,20.65-66.38,26s-50.32,10.4-70.38,10.55c-25.25.2-57.37-2.29-75.92-7.49C93.3,77.47,91.91,76.28,78.19,70.5c-18.17-8.13-15.38-5.86-31-14.11C35.52,52.32,21.17,53.44,13.16,52.51Z"/><path class="cls-3" d="M113.92,38.41C155,45.7,211.77,37,247.23,37.78c29.42.63,43,4.85,43,4.85s59.31,6.77,15.61,13.95c-55.72,9.15-118.81,11.08-179.41,5.56-26.1-2.38-46.67-7-43.52-12.7C82.52,46.46,89.58,38.36,113.92,38.41Z"/><path class="cls-5" d="M0,52.55l2-1.74C5.52,49.32,113.6,10.16,138.77,4,177.58-4.56,187,7.26,196.42,7S226.59-7.7,260.31,5.65C303.16,25,375.67,48.88,387.93,53.06c1,.33-.14,1.55-1.18,1.36-21.34-1.06-73.84-2-74.07-2.06-13.66-.9-47.81,1.4-83.69,0H137.41c-11.31,0-74.78,1.75-86.06,2.78Z"/></g></g></g></g></svg>