<svg xmlns="http://www.w3.org/2000/svg" viewBox="0 0 235.23 161.36"><defs><style>.cls-1{fill:#801918;}.cls-2{fill:#e18687;}.cls-3{fill:#d17e7f;}</style></defs><g id="Layer_2" data-name="Layer 2"><g id="Layer_1-2" data-name="Layer 1"><path class="cls-1" d="M114.24,29.14s-19.31-3-43.2,10.61S24.7,67.13,23.73,75.4s22.45,43.3,45.62,53.7,58.89,17,90-.21,60.78-45.91,56-56.81S176.26,37.63,150,32.32,114.24,29.14,114.24,29.14Z"/><path class="cls-2" d="M0,72.43S28.4,36.35,50.28,21.07,79.48,0,93.32.27s18.34,6.51,24.14,7.08,9.31-9,24.77-7.09C164.08,3,186.49,25.18,200.16,36.07,213,46.26,235.23,72.43,235.23,72.43a236.19,236.19,0,0,0-24.13,1.7c-13.54,1.63-46.79,1-59.27-8.43-8.12-6.16-15.61-10.5-36.43-11.57C105.06,53.6,91.57,58,80,66.72c-13.94,10.46-29.8,5.19-44.6,7.57S0,72.43,0,72.43Z"/><path class="cls-3" d="M0,72.43S20.6,114,52.21,137.17s50,24.19,63.72,24.19,48.27-2.76,79.4-38,39.9-50.94,39.9-50.94S185.5,69.29,178,73.75s-11.27,6.52-19.72,14.38-15.66,21-38.52,21.83c-16.62.62-24-4.54-36-14.3S60.82,78,50.71,73.94,39.74,74.77,0,72.43Z"/></g></g></svg>