<svg xmlns="http://www.w3.org/2000/svg" viewBox="0 0 316.6 165.22"><defs><style>.cls-1{fill:#801918;}.cls-2{fill:#f38b8c;}.cls-3{fill:#d17e7f;}.cls-4{fill:#e18687;}</style></defs><g id="Layer_2" data-name="Layer 2"><g id="Layer_1-2" data-name="Layer 1"><path class="cls-1" d="M155.9,28.31s-25.42-3-56.87,10.9S25.55,66.16,24.28,74.66s42,45.65,72.53,56.33,77.51,17.44,118.49-.22S300.37,83.53,294,72.34,237.54,37,202.91,31.58,155.9,28.31,155.9,28.31Z"/><path class="cls-2" d="M115,83.63c27.14-5,66.83-3.86,79.62-1.53,27.28,5,41.84,6.27,53.23,26.48,1.31,2.32-5.57,15.84-25.09,19.61s-36.24,7.36-56.38,7.17-42-.39-67.8-10c-23.24-8.62-37.39-20-25.27-26.81A135.65,135.65,0,0,1,115,83.63Z"/><path class="cls-3" d="M0,73.78s17.14,25.75,62.58,61.58c35.54,28,78.4,29.86,96.51,29.86s64.48-3.05,105.46-39.24S316.6,74,316.6,74s-29-4.82-44.17,3.93c-11.94,6.86-38.3,26.3-53.11,30.89-13.66,4.23-30,11.09-63.06,11s-40-3.38-57.45-12C81.6,99.2,66.13,93.22,47,82.75,34.46,75.91,35.74,72.64,0,73.78Z"/><path class="cls-4" d="M0,73.78s36.8-28.26,64.6-45.9S109.19.5,127.4.79s23.39,4.36,31,4.94S172.49-2.18,192.77.54c20.93,2.81,54,25.83,72,37C281.6,48,316.6,74,316.6,74s-18.9-.41-39-2.15c-17.88-1.55-29.66-6.7-41.33-10.4-29.9-9.5-53.76-15.69-78-14.41-31.78,1.67-40.85,4.59-70,13C72.78,64.53,51.71,73.1,41.62,74,22,75.65,0,73.78,0,73.78Z"/></g></g></svg>