<svg xmlns="http://www.w3.org/2000/svg" viewBox="0 0 350.2 188.94"><defs><style>.cls-1{fill:#801918;}.cls-2{fill:#f38b8c;}.cls-3{fill:#d17e7f;}.cls-4{fill:#e18687;}</style></defs><g id="Layer_2" data-name="Layer 2"><g id="Layer_1-2" data-name="Layer 1"><path class="cls-1" d="M153.09,16.49s-28.1-3-62.87,10.9S9,54.34,7.56,62.85,58.35,123.36,92.07,134s85.19,15.11,133.33,6.87c46.16-8.4,126.46-67.63,119.47-78.83S243.35,25.21,205.07,19.76,153.09,16.49,153.09,16.49Z"/><path class="cls-2" d="M122.6,69.67c46.58,1,70.58.54,100.21,0,26.5-.47,63.45,11,79.68,35.83,1.86,2.85-7.94,19.44-35.73,24.07s-51.61,9-80.28,8.79-59.74-.47-96.54-12.23c-33.1-10.58-56-24.26-39.23-33.47C72.67,80.62,103.84,69.24,122.6,69.67Z"/><path class="cls-3" d="M.16,61.42s28.59,50.41,70,84.08c54.35,44.25,85.92,43.44,105.94,43.44s72.54-4.71,119.26-53.88c53.61-56.42,54.89-73.39,54.89-73.39s-9.45-5-40.34,28.71c-11,12-45.92,28.37-62.3,34.77-15.1,5.9-34.62,9.81-71.15,9.66s-33.3-.84-55.49-6c-26-6-40.61-12.1-61.78-26.7C45.29,92.58,11.65,54.64.16,61.42Z"/><path class="cls-4" d="M6.54,62.81c-1.38.23-7.6-.7-6.38-1.39,12.6-7.1,48-27.27,71.42-38.37C102.2,8.52,120.88.42,141,.66s25.86,3.6,34.28,4.08,15.57-6.54,38-4.29c23.15,2.32,59.71,21.35,79.6,30.6,14.69,6.84,45.62,24.47,56.43,30.41,1.17.63-2.81,1.46-4.13,1.38-7.45-.4-22-3.48-36.86-6.86-22.22-5.07-29.51-4.83-42.9-5.7-35.49-2.32-65.84-3.86-91.54-3.8-35.17.08-33.09-.12-66.24,2.11-22,1.48-51.42,5.83-62.58,6.54C30.75,56.05,15.07,61.38,6.54,62.81Z"/></g></g></svg>