<svg xmlns="http://www.w3.org/2000/svg" viewBox="0 0 123.2 338.6"><defs><style>.cls-1{fill:#33334d;}.cls-2{fill:#e63268;}.cls-3{fill:#c11e58;}.cls-4{fill:#f9ae83;}.cls-5{fill:#f8a279;}.cls-6{fill:#fff;}.cls-7{fill:#f58a69;}</style></defs><g id="Layer_2" data-name="Layer 2"><g id="eye-closed"><g id="Layer_2-2" data-name="Layer 2"><g id="Layer_1-2" data-name="Layer 1-2"><path class="cls-1" d="M32.4,178.6a65.4,65.4,0,0,1,3.1-21.1c20.3-1.3,52.3,0,52.3,0l.1.4a80.4,80.4,0,0,1,1.4,20.8C69.5,190.8,50.5,190,32.4,178.6Z"/><path class="cls-1" d="M89.3,178.6s4.8,67.1,4.2,81.9l3.9,78.1-13-.8c-2.3-40.3-9.9-58.5-7.5-76.8-7.3-24-11.1-52.4-12.3-75C64.7,186.1,76.3,178.8,89.3,178.6Z"/><path class="cls-1" d="M32.4,178.6s-4.3,67.1-3.8,81.9l-3.9,78.1,13-.8c.8-30.5,11-55.1,7.5-76.8,6.5-21,9.9-49.9,11.1-75C56.3,186.1,45.5,178.8,32.4,178.6Z"/><path class="cls-2" d="M82.3,119l6.4,39.2s-12.9,6.6-27.8,6.6a54.53,54.53,0,0,1-26.5-6.6L40.8,119,40,102c-5.1-3.9-3.4-14.3-3.4-14.3L34.5,71.9l20.2-8.6,13-.1L88.9,71,86.6,87.7s2.2,9.7-2.8,14.2Z"/><path class="cls-3" d="M79.6,103.6s-14.3,10.1-34.9.6c0,0,19.3,5.2,34.9-.6"/><path class="cls-4" d="M13.8,181.7c.7,2.2,1.5,4.4,2.4,6.5,1.2,2.7.4,4.8,1.1,7.3s-2.2,2.3-2.8-.3-.3-3.8-.9-3.9-2.1,6.2-2.3,8,.1,6.3-.5,7-2.3-1.9-1.8-6.6.1-4.6.1-4.6L8.4,199a21.91,21.91,0,0,0-.4,5.7c.1,1.3-1.3,2-1.7,1.3a17.81,17.81,0,0,1-.5-7.2c.5-1.8,1.2-5,1.2-5s-1.8,4.2-2.1,5.3.2,5.2-.8,6c-.4.3-1.7-.1-1.4-6a39.38,39.38,0,0,1,1-4.7,12.32,12.32,0,0,0-1.4,3.1,26.73,26.73,0,0,0-.8,4.8c-.1,1.6-1.5,1.4-1.5-1.4s.5-5.9,1.3-7.4,2-10.3,4.3-13.5Z"/><path class="cls-2" d="M40.4,87.6s-7,32.3-12.6,43.1c0,0-2.9,14.2-13.7,51.6,0,0-5.7,2.2-8.9-2.1,0,0,6.1-41.3,9.2-54.4,0,0,10.2-46.3,20.2-53.9A28.72,28.72,0,0,1,40.4,87.6Z"/><path class="cls-4" d="M109.4,181.7c-.7,2.2-1.5,4.4-2.4,6.5-1.2,2.7-.4,4.8-1.1,7.3s2.2,2.3,2.8-.3.3-3.8.9-3.9,2.1,6.2,2.3,8-.2,6.3.5,7,2.3-1.9,1.8-6.6-.1-4.6-.1-4.6.4,1.8.9,3.8a21.91,21.91,0,0,1,.4,5.7c-.1,1.3,1.3,2,1.7,1.3a17.81,17.81,0,0,0,.5-7.2c-.5-1.8-1.2-5-1.2-5s1.8,4.2,2.1,5.3-.2,5.2.7,6c.4.3,1.7-.1,1.4-6a26.64,26.64,0,0,0-1.1-4.7,9.58,9.58,0,0,1,1.4,3.1,26.73,26.73,0,0,1,.8,4.8c.1,1.6,1.5,1.4,1.5-1.4s-.5-5.9-1.3-7.4-2-10.3-4.3-13.5Z"/><path class="cls-2" d="M82.8,87.6s6.8,31.3,12.4,42.1c0,0,3.1,15.2,13.9,52.6,0,0,5.7,2.2,9-2.1,0,0-5.2-41.1-8.4-54.2,0,0-13.5-46.6-20.9-55A34.07,34.07,0,0,0,82.8,87.6Z"/><path class="cls-1" d="M90.5,35.6c1,2.1,2.1,4.2,3.1,6.5,3.4,7.3-3.5,8.2-3.5,8.2s3,5,.1,8.9S82.4,61,82.4,61s-1.3,2.2-5.5,2.4c-6.1.4-8.8-2.1-8.8-2.1l-6.6-1.2c-.8.5-2.9,2.1-8,2.7A14.58,14.58,0,0,1,45.1,61C44,64.3,35,64.3,33.4,59.2c-1.6-4.8.4-6.7.6-7-3.6,2.8-11.4-4.8-5.5-12.1,2.4-3,3.8-4.3,4.7-5.8-3.1.8-7-3-6.1-6.2,1.2-4.2,4.9-2.5,7.2-8.6,3.2-8,6.1-10.8,6.3-10.9h0A27.27,27.27,0,0,1,62.6.1c7.9.5,13.1,5,16.2,8.2a19.05,19.05,0,0,1,5,10,14.19,14.19,0,0,0,.5,2.2c1.5,2.6,4.4,7.4,7.3,8.8C95.6,31.2,94.4,36.4,90.5,35.6Z"/><path class="cls-5" d="M45.1,32.4s-3.7-3.6-6.6-1.2c-3.4,2.8.2,12.6,6.3,11.6Z"/><path class="cls-6" d="M43.2,42.2a1.75,1.75,0,1,1-1.8-1.7h0a1.71,1.71,0,0,1,1.8,1.7Z"/><path class="cls-7" d="M44.2,39.4a9.42,9.42,0,0,0-5.3-5.9s3.7,3.5,4,6.2c0,.4.3.6.7.6h.1c.4,0,.6-.3.6-.7C44.2,39.5,44.2,39.5,44.2,39.4Z"/><path class="cls-5" d="M75.9,32.4s3.7-3.6,6.6-1.2c3.4,2.8-.2,12.6-6.3,11.6Z"/><path class="cls-6" d="M81.9,42.2a1.75,1.75,0,1,1-1.8-1.7h0A1.77,1.77,0,0,1,81.9,42.2Z"/><path class="cls-7" d="M76.9,39.4a9.42,9.42,0,0,1,5.3-5.9s-3.7,3.5-4,6.2c0,.4-.3.6-.7.6h-.1a.56.56,0,0,1-.6-.7C76.9,39.6,76.9,39.5,76.9,39.4Z"/><path class="cls-4" d="M68.5,53.5l-.2,4.8-.3,6s-1.2,2.2-6.6,2.2S54.9,65,54.9,65l-.2-2.7L54,53.5Z"/><path class="cls-7" d="M68.5,53.5l-.2,4.8c-2.2,1.7-7.5,5-13.6,4L54,53.5Z"/><path class="cls-4" d="M80.11,28.52a11,11,0,0,1-.2,1.8c-1.3,12.3-5.1,27.9-18.6,27.9-13.2,0-18.5-14.7-20.2-26.7-.1-.9-.2-1.7-.3-2.6a19.48,19.48,0,0,1,17.3-21.5,10.87,10.87,0,0,1,1.8-.1h1a19.38,19.38,0,0,1,18.2,13.2,12.76,12.76,0,0,1,.7,2.8A15.21,15.21,0,0,1,80.11,28.52Z"/><path class="cls-1" d="M53.48,31.85a6.56,6.56,0,0,1-2.23-.22l-.44-.12c-.12-.05-.31-.09-.11-.18-1.8,0-1.8-.29-1.8-.29a26.33,26.33,0,0,0,3.3,0h.95c1.22,0,2.39,0,2.29.27A3.46,3.46,0,0,1,53.48,31.85Z"/><path class="cls-7" d="M61.2,52.8a8,8,0,0,1-3-.9.54.54,0,0,1,.4-1,.1.1,0,0,1,.1.1,6.75,6.75,0,0,0,6.6-.1.57.57,0,0,1,.7.2.61.61,0,0,1-.1.6A6.74,6.74,0,0,1,61.2,52.8Z"/><path class="cls-7" d="M62.8,40.5H60.2a.5.5,0,0,1,0-1h2.7v-.1l-2.2-7.5a.57.57,0,0,1,.4-.7.61.61,0,0,1,.7.3h0L64,39a1.39,1.39,0,0,1-.2,1.1A2.11,2.11,0,0,1,62.8,40.5Z"/><path id="eyebrow-left" class="cls-1" d="M55.8,23.8h0a.94.94,0,0,1-.8,1.1h-.2c-2,.1-6.3.4-8.3,2.6,0,0,.7-3.8,8.2-4.7a1.16,1.16,0,0,1,1.1,1Z"/><path id="eyebrow-right" class="cls-1" d="M66.4,23.6h0a1,1,0,0,0,.9,1.1h.1c2,0,6.3.3,8.4,2.4,0,0-.8-3.7-8.3-4.4a1,1,0,0,0-1.1.9Z"/><path class="cls-1" d="M77.8,23.2c-5.1-.4-18.2-4.5-30.1-8.8,0,0,1,12.2-6,18.3a6.94,6.94,0,0,0-.5-1.3c-.1-.9-.2-1.7-.3-2.6A19.34,19.34,0,0,1,58.2,7.5a10.28,10.28,0,0,1,1.7-.1h1A19.38,19.38,0,0,1,79.1,20.6a12.76,12.76,0,0,1,.7,2.8A16.31,16.31,0,0,1,77.8,23.2Z"/><path class="cls-1" d="M80.1,28.6a11,11,0,0,1-.2,1.8c-1.6-.9-2-4.7-2.1-7.1a10.66,10.66,0,0,1,0-2s.1-.4,1.4-.6a12.76,12.76,0,0,1,.7,2.8A17.34,17.34,0,0,1,80.1,28.6Z"/><path class="cls-1" d="M66.9,31.05c-.1-.26,1.06-.24,2.29-.26h1a26.69,26.69,0,0,0,3.3,0s0,.24-1.8.29c.2.09,0,.13-.11.18l-.44.12a7.13,7.13,0,0,1-2.23.22A3.52,3.52,0,0,1,66.9,31.05Z"/></g></g></g></g></svg>