<svg xmlns="http://www.w3.org/2000/svg" viewBox="0 0 217 632.28"><defs><style>.cls-1{fill:#2c2c2c;}.cls-2{fill:#019762;}.cls-3{fill:#fff;}.cls-4{fill:#e2e2e2;}.cls-5{fill:#f9ae83;}.cls-6{fill:#f58969;}.cls-7{fill:#f8a279;}.cls-8{fill:#33324c;}</style></defs><g id="Layer_2" data-name="Layer 2"><g id="Layer_1-2" data-name="Layer 1"><path class="cls-1" d="M54.73,355.76c-.07-23.32,5.7-39,5.7-39,37.44-2.42,96.34,0,96.34,0l.24.67s6.05,21.29,2.51,38.29C123.08,378.32,88,376.83,54.73,355.76Z"/><path class="cls-1" d="M160.22,351.35s8.05,109.72,7.11,137.11l7.22,143.82-23.92-1.42c-5.19-65.89-14.08-99-13.82-141.45L116.33,361.48S136.24,351.83,160.22,351.35Z"/><path class="cls-1" d="M54.85,351.35S46.8,461.07,47.74,488.46L40.52,632.28l23.92-1.42c5.19-65.89,14.09-99,13.82-141.45L98.75,361.48S78.84,351.83,54.85,351.35Z"/><path class="cls-2" d="M161.45,326.12c-10.65,5.58-20.53,9.69-30.44,12.16A89.55,89.55,0,0,1,108.26,341a87.19,87.19,0,0,1-20-2.14c-10.59-2.38-21-6.71-32.6-12.78l4.38-90.93L59.6,129.11l26.93-7.23,8.1-2.16a51.95,51.95,0,0,1,27.26,0l9.12,2.45,25.92,6.94-.47,106.08Z"/><path class="cls-3" d="M131,122.17V338.28A89.55,89.55,0,0,1,108.26,341a87.19,87.19,0,0,1-20-2.14l0-5.38,0-5.63-.11-13.09,0-5.63L88,296.1l-.06-5.63L87.8,277.4l0-5.61-.11-13.07,0-5.6L87.49,240l0-5.62-.11-13.08,0-5.6-.11-13.1,0-5.58L87,183.94,87,178.38l-.11-13.12,0-5.56-.11-13.1,0-5.56-.11-13.14,0-5.55v-.47l8.1-2.16a51.95,51.95,0,0,1,27.26,0l9,2.43Z"/><path class="cls-4" d="M131,127.93v5.49a131.29,131.29,0,0,1-22.29,1.81,157.54,157.54,0,0,1-22.14-1.58l0-5.54c10.3,1.49,27.08,2.85,44.39-.2Z"/><path class="cls-4" d="M131,143.56v5.52a128.74,128.74,0,0,1-22,1.82,152.75,152.75,0,0,1-22.31-1.66l0-5.56C97,145.23,113.73,146.65,131,143.56Z"/><path class="cls-4" d="M131,159.63v5.56A126.05,126.05,0,0,1,109.35,167a147.44,147.44,0,0,1-22.48-1.74l0-5.56C97.14,161.32,113.77,162.81,131,159.63Z"/><path class="cls-4" d="M131,178.38v5.56a121.93,121.93,0,0,1-21.38,1.82A144,144,0,0,1,87,183.94L87,178.38C97.29,180.05,113.82,181.6,131,178.38Z"/><path class="cls-4" d="M131,197.15v5.55a119.72,119.72,0,0,1-21.13,1.83,139.76,139.76,0,0,1-22.7-1.89l0-5.58C97.43,198.81,113.86,200.39,131,197.15Z"/><path class="cls-4" d="M131,215.89v5.56a115.15,115.15,0,0,1-20.87,1.83,138.29,138.29,0,0,1-22.81-1.94l0-5.6C97.56,217.56,113.92,219.2,131,215.89Z"/><path class="cls-4" d="M131,234.64v5.56a112,112,0,0,1-20.66,1.86,133.28,133.28,0,0,1-22.86-2l0-5.62C97.7,236.3,114,238,131,234.64Z"/><path class="cls-4" d="M131,253.4V259a109.11,109.11,0,0,1-20.44,1.87,127.38,127.38,0,0,1-22.93-2.11l0-5.6C97.85,255.05,114,256.78,131,253.4Z"/><path class="cls-4" d="M131,272.15v5.58a108.63,108.63,0,0,1-20.26,1.85,123.61,123.61,0,0,1-23-2.18l0-5.61C98,273.8,114.06,275.57,131,272.15Z"/><path class="cls-4" d="M131,290.9v5.56a104.47,104.47,0,0,1-20.08,1.9,120.94,120.94,0,0,1-23-2.26l-.06-5.63C98.12,292.54,114.1,294.36,131,290.9Z"/><path class="cls-4" d="M131,309.64v5.6a103.55,103.55,0,0,1-19.89,1.89,116.92,116.92,0,0,1-23-2.33l0-5.63C98.27,311.29,114.15,313.15,131,309.64Z"/><path class="cls-4" d="M131,328.39V334a101.74,101.74,0,0,1-19.73,1.89,115.61,115.61,0,0,1-23-2.36l0-5.63C98.4,330.05,114.21,331.94,131,328.39Z"/><path class="cls-5" d="M25.5,326A110.84,110.84,0,0,0,29.89,338c2.31,5,.73,8.9,2.11,13.44s-4,4.2-5.09-.56-.6-7-1.59-7.16-3.82,11.44-4.23,14.77.27,11.68-1,13-4.25-3.39-3.3-12.07.25-8.49.25-8.49-.82,3.37-1.68,7a38.77,38.77,0,0,0-.7,10.51c.16,2.48-2.36,3.71-3.11,2.38s-1.93-10-.92-13.34,2.22-9.17,2.22-9.17S9.55,356,9,358s.38,9.66-1.37,11.05c-.72.58-3-.19-2.65-11.09a60.18,60.18,0,0,1,2-8.61,19.31,19.31,0,0,0-2.65,5.76A53.38,53.38,0,0,0,2.81,364C2.56,367,0,366.59,0,361.39s.87-10.93,2.33-13.69,3.59-18.95,7.92-24.88Z"/><path class="cls-2" d="M74.43,152.69S62,210.3,51.56,230.23c0,0-5.74,28-25.66,96.85,0,0-10.41,4.14-16.48-3.76,0,0,9.62-75.66,15.43-99.85,0,0,26-83.58,34.76-94.36C59.61,129.11,73.05,134.58,74.43,152.69Z"/><path class="cls-5" d="M191.5,326A110.84,110.84,0,0,1,187.11,338c-2.31,5-.73,8.9-2.11,13.44s4,4.2,5.09-.56.6-7,1.59-7.16,3.83,11.44,4.23,14.77-.27,11.68,1,13,4.25-3.39,3.3-12.07-.25-8.49-.25-8.49.82,3.37,1.68,7a38.77,38.77,0,0,1,.7,10.51c-.16,2.48,2.36,3.71,3.11,2.38s1.93-10,.92-13.34-2.22-9.17-2.22-9.17S207.45,356,208,358s-.38,9.66,1.37,11.05c.72.58,3-.19,2.65-11.09a60.18,60.18,0,0,0-1.95-8.61,19.31,19.31,0,0,1,2.65,5.76,53.38,53.38,0,0,1,1.45,8.91c.25,3,2.81,2.56,2.81-2.64s-.87-10.93-2.33-13.69-3.59-18.95-7.92-24.88Z"/><path class="cls-2" d="M142.57,152.69S155,210.3,165.44,230.23c0,0,5.74,28,25.66,96.85,0,0,10.41,4.14,16.48-3.76,0,0-9.62-75.66-15.43-99.85,0,0-26-83.58-34.76-94.36C157.39,129.11,144,134.58,142.57,152.69Z"/><path class="cls-5" d="M122.41,104.54l-.47,8.81-.59,11s-2.19,4.15-12.08,4.15-11.92-2.83-11.92-2.83l-.4-4.9-1.33-16.27Z"/><path class="cls-6" d="M122.41,104.54l-.47,8.81c-4.13,3.09-13.89,9.17-25,7.46l-1.33-16.27Z"/><path class="cls-7" d="M78.72,64.49s-7.57-7.42-13.63-2.58C58,67.63,65.42,88.2,78.11,86Z"/><path class="cls-6" d="M74.3,80.9a1.24,1.24,0,0,1-1.2-1.15c-.82-10.12-6.74-11.88-7-12a1.26,1.26,0,0,1,.64-2.43c.32.09,7.89,2.18,8.86,14.18a1.26,1.26,0,0,1-1.15,1.35Z"/><path class="cls-6" d="M67.21,75.74a1.28,1.28,0,0,1-.81-.34,1.25,1.25,0,0,1-.05-1.78,7.12,7.12,0,0,1,6.76-1.7,1.25,1.25,0,1,1-.62,2.43,4.57,4.57,0,0,0-4.32,1A1.28,1.28,0,0,1,67.21,75.74Z"/><path class="cls-7" d="M136.64,64.49s7.57-7.42,13.63-2.58c7.15,5.72-.33,26.29-13,24.11Z"/><path class="cls-6" d="M141.06,80.9a1.24,1.24,0,0,0,1.2-1.15c.82-10.12,6.75-11.88,7-12a1.26,1.26,0,0,0-.64-2.43c-.32.09-7.89,2.18-8.86,14.18a1.26,1.26,0,0,0,1.15,1.35Z"/><path class="cls-6" d="M148.15,75.74a1.3,1.3,0,0,0,.82-.34,1.26,1.26,0,0,0,0-1.78,7.12,7.12,0,0,0-6.76-1.7,1.25,1.25,0,0,0,.62,2.43,4.57,4.57,0,0,1,4.32,1A1.28,1.28,0,0,0,148.15,75.74Z"/><path class="cls-5" d="M108.06,113.19c-26.19,0-34.27-31.1-36.68-53.87a35.93,35.93,0,0,1,35.19-39.73h1.89a36,36,0,0,1,35.3,39.05C141.76,81.71,134.23,113.19,108.06,113.19Z"/><path class="cls-8" d="M141.31,2.85c13.28,9.09,1.26,26.81,1.26,26.81s13.23,12.94-.39,43.42l-2.42-.49c1.55-9.76.62-21.64,0-23.51-1.84-5.58-11.62-8.54-11.12-14.57,0,0-30,9.37-46.19.17,0,0-1.28,7.72-5.73,12.59-3.71,4.07-1.6,18.26-1.12,24.4l-2.49.24C71.64,65.66,68,54.4,67.65,51.08,67.4,49,66.51,40.7,66.13,34.77a29.12,29.12,0,0,1,3-15.07,19.8,19.8,0,0,1,5.6-7C83.39,6.21,129.26-5.39,141.31,2.85Z"/><path class="cls-8" d="M95.81,64.45c0,2.61-1.16,4.73-2.6,4.73s-2.61-2.12-2.61-4.73,1.17-4.74,2.61-4.74S95.81,61.83,95.81,64.45Z"/><path class="cls-8" d="M82.58,54.32s2.5-5.15,7.31-6.44a12.32,12.32,0,0,1,9.23.82,1.61,1.61,0,0,1-1.46,2.86C95,50.31,89,48.69,82.58,54.32Z"/><path class="cls-8" d="M121.34,64.45c0,2.61,1.16,4.73,2.6,4.73s2.6-2.12,2.6-4.73-1.16-4.74-2.6-4.74S121.34,61.83,121.34,64.45Z"/><path class="cls-8" d="M134.57,54.32s-2.5-5.15-7.31-6.44a12.32,12.32,0,0,0-9.23.82,1.61,1.61,0,0,0,1.46,2.86C122.19,50.31,128.12,48.69,134.57,54.32Z"/><path class="cls-6" d="M108.12,80.51a1.41,1.41,0,0,1-1-.65,1.38,1.38,0,0,1,.45-1.9l3.94-2.43-3.09-1.14a1.4,1.4,0,0,1-.91-1.21l-.53-8.89a1.38,1.38,0,0,1,2.76-.16l.48,8,4.9,1.8a1.39,1.39,0,0,1,.9,1.16,1.37,1.37,0,0,1-.65,1.31L109,80.3A1.35,1.35,0,0,1,108.12,80.51Z"/></g></g></svg>