<svg xmlns="http://www.w3.org/2000/svg" viewBox="0 0 115.59 197.52"><defs><style>.cls-1{fill:#444461;}.cls-2{fill:#3783c5;}.cls-3{fill:#f9bb9c;}.cls-4{fill:#f79c81;}.cls-5{fill:#dd7a5f;}.cls-6{fill:#fff;}.cls-7{fill:#33334d;}</style></defs><g id="Layer_2" data-name="Layer 2"><g id="Layer_1-2" data-name="Layer 1"><path class="cls-1" d="M29.15,188.8a64.81,64.81,0,0,1,3-20.75c19.94-1.29,51.31,0,51.31,0s.09.24.13.36S86.86,179.75,85,188.8C65.56,200.82,46.86,200,29.15,188.8Z"/><path class="cls-1" d="M62,191.85a62.73,62.73,0,0,1,23.38-5.4"/><path class="cls-1" d="M52.6,191.85a62.73,62.73,0,0,0-23.38-5.4"/><path class="cls-2" d="M86,173c-9.94,5.2-18.62,8-28.33,7.94s-18.06-2.74-28-7.94L32,124.58l-.25-56.5,18.66-5a27.93,27.93,0,0,1,14.52,0l18.66,5-.25,56.5Z"/><path class="cls-3" d="M64.85,55.51l-.27,4.39-.34,5.49S63,67.46,57.16,67.46s-7-1.41-7-1.41l-.23-2.44-.78-8.1Z"/><path class="cls-4" d="M64.85,55.51l-.27,4.39c-2.42,1.53-8.14,4.56-14.64,3.71l-.78-8.1Z"/><path class="cls-4" d="M42.43,29.86S38.91,24.57,33.62,27,30.34,45.3,39.55,44C39.55,44,44,37.43,42.43,29.86Z"/><path class="cls-5" d="M37.41,38.78a.74.74,0,0,1-.74-.7,10.42,10.42,0,0,0-2.94-6.37.74.74,0,0,1,0-1,.73.73,0,0,1,1,0A11.68,11.68,0,0,1,38.14,38a.73.73,0,0,1-.7.77Z"/><path class="cls-5" d="M34.59,37h-.11a.74.74,0,0,1-.62-.84A3.82,3.82,0,0,1,36,33.35a.74.74,0,0,1,.54,1.37,2.3,2.3,0,0,0-1.25,1.67A.74.74,0,0,1,34.59,37Z"/><path class="cls-4" d="M71.92,30.12S74,24.49,79.32,27s3.28,18.26-5.93,17A23.38,23.38,0,0,1,71.92,30.12Z"/><path class="cls-5" d="M75.9,38.78h0a.73.73,0,0,1-.7-.77,11.63,11.63,0,0,1,3.4-7.37.73.73,0,0,1,1,1.07,10.43,10.43,0,0,0-2.94,6.37A.73.73,0,0,1,75.9,38.78Z"/><path class="cls-5" d="M78.72,37a.74.74,0,0,1-.73-.63,2.3,2.3,0,0,0-1.25-1.67.74.74,0,1,1,.54-1.37,3.77,3.77,0,0,1,2.16,2.82.73.73,0,0,1-.61.84Z"/><path class="cls-3" d="M37.1,17.14S32.05,58.66,56.75,58.66s18.5-41.88,18.5-41.88Z"/><ellipse class="cls-6" cx="48.44" cy="30.51" rx="3.64" ry="1.47"/><path class="cls-7" d="M46.79,30.53a1.69,1.69,0,0,0,3.31,0c0-.75-.33-1.36-1.65-1.36S46.79,29.78,46.79,30.53Z"/><path class="cls-7" d="M61.82,25.24s-.82,1.57.08,2c0,0,5.67-1.92,10.09,0,0,0-.36-1.66-3.22-2.21C64.16,24.2,61.82,25.24,61.82,25.24Z"/><path class="cls-7" d="M52.45,25s.83,1.57-.07,2c0,0-4.09-2-10.06,0,0,0,.37-1.59,3.2-2.21A14.52,14.52,0,0,1,52.45,25Z"/><path class="cls-4" d="M56.17,41.07a7.33,7.33,0,0,1-2.27-.38.73.73,0,1,1,.46-1.39s3,1,3.66-.63-.46-5.89-1.25-8.31a.73.73,0,0,1,.48-.92.72.72,0,0,1,.92.47c.23.69,2.17,6.83,1.22,9.29A3.14,3.14,0,0,1,56.17,41.07Z"/><path class="cls-4" d="M57.2,53.31a7.12,7.12,0,0,1-3.84-1.11.5.5,0,0,1-.16-.68.49.49,0,0,1,.68-.15,6.72,6.72,0,0,0,6.57.17.49.49,0,0,1,.67.18.5.5,0,0,1-.18.67A8.3,8.3,0,0,1,57.2,53.31Z"/><path class="cls-7" d="M35.82,20.33A10.15,10.15,0,0,1,30.53,9.47c.75-4.66,6.33-7.06,9.67-4.21,0,0,.37-3.85,7.37-5.14,5-.92,8.19,3.8,8.19,3.8S57.31,1.33,63,2c5,.55,6.15,4.08,6.15,4.08s4-1.77,7.64.16c6.08,3.27,1.6,10.45,0,12.41,0,0,2.51,7.57-.93,11.83H74.68a9.61,9.61,0,0,1-.12-7s-2.51-3.22-2.27-5.56c0,0-7.49,2.22-10.68,0,0,0-4,2.44-8.22.72,0,0-7.94,2-11.5.17,0,0,.27,5.3-2.26,6.28,0,0,.56,3.84-1.06,5.56H36.83S33.65,24.08,35.82,20.33Z"/><path class="cls-3" d="M13.58,173a59.84,59.84,0,0,0,2.34,6.36c1.23,2.67.39,4.74,1.13,7.16s-2.16,2.23-2.71-.3-.32-3.74-.85-3.82-2,6.1-2.26,7.87.15,6.22-.52,6.91-2.26-1.8-1.75-6.43.13-4.52.13-4.52-.44,1.79-.9,3.72a21,21,0,0,0-.37,5.6c.08,1.32-1.26,2-1.66,1.27s-1-5.31-.49-7.11,1.19-4.88,1.19-4.88-1.77,4.14-2.08,5.2.21,5.14-.73,5.89c-.38.3-1.61-.1-1.41-5.91a32.77,32.77,0,0,1,1-4.59,10.2,10.2,0,0,0-1.41,3.07,27.66,27.66,0,0,0-.77,4.75c-.14,1.57-1.5,1.36-1.5-1.41s.46-5.82,1.24-7.29,1.92-10.09,4.22-13.25Z"/><path class="cls-2" d="M39.64,80.64S33,111.32,27.46,121.94c0,0-3.05,14.93-13.67,51.59,0,0-5.54,2.2-8.77-2,0,0,5.12-40.3,8.22-53.19,0,0,13.86-44.52,18.51-50.26C31.75,68.08,38.91,71,39.64,80.64Z"/><path class="cls-3" d="M102,173a59.84,59.84,0,0,1-2.34,6.36c-1.23,2.67-.38,4.74-1.12,7.16s2.15,2.23,2.71-.3.32-3.74.85-3.82,2,6.1,2.25,7.87-.14,6.22.52,6.91,2.27-1.8,1.76-6.43-.13-4.52-.13-4.52l.89,3.72a21,21,0,0,1,.38,5.6c-.09,1.32,1.26,2,1.65,1.27s1-5.31.49-7.11-1.18-4.88-1.18-4.88,1.77,4.14,2.07,5.2-.2,5.14.73,5.89c.39.3,1.62-.1,1.41-5.91a32.14,32.14,0,0,0-1-4.59,10.49,10.49,0,0,1,1.41,3.07,28.67,28.67,0,0,1,.77,4.75c.13,1.57,1.49,1.36,1.5-1.41s-.47-5.82-1.25-7.29-1.91-10.09-4.21-13.25Z"/><path class="cls-2" d="M75.66,80.64s6.63,30.68,12.19,41.3c0,0,3.05,14.93,13.66,51.59,0,0,5.55,2.2,8.78-2,0,0-5.13-40.3-8.22-53.19,0,0-13.87-44.52-18.52-50.26C83.55,68.08,76.4,71,75.66,80.64Z"/><ellipse class="cls-6" cx="66.22" cy="30.42" rx="3.64" ry="1.47"/><path class="cls-7" d="M67.87,30.43a1.69,1.69,0,0,1-3.31,0c0-.75.32-1.36,1.65-1.36S67.87,29.68,67.87,30.43Z"/></g></g></svg>