<?xml version="1.0" encoding="utf-8"?>
<!-- Generator: Adobe Illustrator 24.3.0, SVG Export Plug-In . SVG Version: 6.00 Build 0)  -->
<svg version="1.1" id="Layer_1" xmlns="http://www.w3.org/2000/svg" xmlns:xlink="http://www.w3.org/1999/xlink" x="0px" y="0px"
	 viewBox="0 0 123.2 338.6" style="enable-background:new 0 0 123.2 338.6;" xml:space="preserve">
<style type="text/css">
	.st0{fill:#33334D;}
	.st1{fill:#E63268;}
	.st2{fill:#C11E58;}
	.st3{fill:#F9AE83;}
	.st4{fill:#F8A279;}
	.st5{fill:#FFFFFF;}
	.st6{fill:#F58A69;}
</style>
<g id="Layer_2_1_">
	<g id="Layer_1-2">
		<path class="st0" d="M32.4,178.6c-0.1-7.2,0.9-14.3,3.1-21.1c20.3-1.3,52.3,0,52.3,0l0.1,0.4c1.4,6.8,1.8,13.8,1.4,20.8
			C69.5,190.8,50.5,190,32.4,178.6z"/>
		<path class="st0" d="M89.3,178.6c0,0,4.8,67.1,4.2,81.9l3.9,78.1l-13-0.8c-2.3-40.3-9.9-58.5-7.5-76.8c-7.3-24-11.1-52.4-12.3-75
			C64.7,186.1,76.3,178.8,89.3,178.6z"/>
		<path class="st0" d="M32.4,178.6c0,0-4.3,67.1-3.8,81.9l-3.9,78.1l13-0.8c0.8-30.5,11-55.1,7.5-76.8c6.5-21,9.9-49.9,11.1-75
			C56.3,186.1,45.5,178.8,32.4,178.6z"/>
		<path class="st1" d="M82.3,119l6.4,39.2c0,0-12.9,6.6-27.8,6.6c-9.2,0.1-18.4-2.2-26.5-6.6l6.4-39.2L40,102
			c-5.1-3.9-3.4-14.3-3.4-14.3l-2.1-15.8l20.2-8.6l13-0.1L88.9,71l-2.3,16.7c0,0,2.2,9.7-2.8,14.2L82.3,119z"/>
		<path class="st2" d="M79.6,103.6c0,0-14.3,10.1-34.9,0.6C44.7,104.2,64,109.4,79.6,103.6"/>
		<path class="st3" d="M13.8,181.7c0.7,2.2,1.5,4.4,2.4,6.5c1.2,2.7,0.4,4.8,1.1,7.3s-2.2,2.3-2.8-0.3s-0.3-3.8-0.9-3.9
			s-2.1,6.2-2.3,8s0.1,6.3-0.5,7s-2.3-1.9-1.8-6.6s0.1-4.6,0.1-4.6L8.4,199c-0.4,1.9-0.5,3.8-0.4,5.7c0.1,1.3-1.3,2-1.7,1.3
			s-1-5.4-0.5-7.2s1.2-5,1.2-5s-1.8,4.2-2.1,5.3s0.2,5.2-0.8,6c-0.4,0.3-1.7-0.1-1.4-6c0.2-1.6,0.6-3.1,1-4.7c-0.6,1-1.1,2-1.4,3.1
			c-0.4,1.6-0.7,3.2-0.8,4.8c-0.1,1.6-1.5,1.4-1.5-1.4s0.5-5.9,1.3-7.4s2-10.3,4.3-13.5L13.8,181.7z"/>
		<path class="st1" d="M40.4,87.6c0,0-7,32.3-12.6,43.1c0,0-2.9,14.2-13.7,51.6c0,0-5.7,2.2-8.9-2.1c0,0,6.1-41.3,9.2-54.4
			c0,0,10.2-46.3,20.2-53.9C38,76.4,40.1,81.9,40.4,87.6z"/>
		<path class="st3" d="M109.4,181.7c-0.7,2.2-1.5,4.4-2.4,6.5c-1.2,2.7-0.4,4.8-1.1,7.3s2.2,2.3,2.8-0.3s0.3-3.8,0.9-3.9
			s2.1,6.2,2.3,8s-0.2,6.3,0.5,7s2.3-1.9,1.8-6.6s-0.1-4.6-0.1-4.6s0.4,1.8,0.9,3.8c0.4,1.9,0.5,3.8,0.4,5.7c-0.1,1.3,1.3,2,1.7,1.3
			s1-5.4,0.5-7.2s-1.2-5-1.2-5s1.8,4.2,2.1,5.3s-0.2,5.2,0.7,6c0.4,0.3,1.7-0.1,1.4-6c-0.2-1.6-0.6-3.1-1.1-4.7c0.7,1,1.1,2,1.4,3.1
			c0.4,1.6,0.7,3.2,0.8,4.8c0.1,1.6,1.5,1.4,1.5-1.4s-0.5-5.9-1.3-7.4s-2-10.3-4.3-13.5L109.4,181.7z"/>
		<path class="st1" d="M82.8,87.6c0,0,6.8,31.3,12.4,42.1c0,0,3.1,15.2,13.9,52.6c0,0,5.7,2.2,9-2.1c0,0-5.2-41.1-8.4-54.2
			c0,0-13.5-46.6-20.9-55C85.4,75.9,83.3,81.6,82.8,87.6z"/>
		<path class="st0" d="M90.5,35.6c1,2.1,2.1,4.2,3.1,6.5c3.4,7.3-3.5,8.2-3.5,8.2s3,5,0.1,8.9S82.4,61,82.4,61s-1.3,2.2-5.5,2.4
			c-6.1,0.4-8.8-2.1-8.8-2.1l-6.6-1.2c-0.8,0.5-2.9,2.1-8,2.7c-2.9,0.3-5.8-0.4-8.4-1.8C44,64.3,35,64.3,33.4,59.2
			c-1.6-4.8,0.4-6.7,0.6-7c-3.6,2.8-11.4-4.8-5.5-12.1c2.4-3,3.8-4.3,4.7-5.8c-3.1,0.8-7-3-6.1-6.2c1.2-4.2,4.9-2.5,7.2-8.6
			c3.2-8,6.1-10.8,6.3-10.9l0,0c5.7-6,13.8-9.2,22-8.5c7.9,0.5,13.1,5,16.2,8.2c2.6,2.8,4.4,6.2,5,10c0.1,0.8,0.3,1.5,0.5,2.2
			c1.5,2.6,4.4,7.4,7.3,8.8C95.6,31.2,94.4,36.4,90.5,35.6z"/>
		<path class="st4" d="M45.1,32.4c0,0-3.7-3.6-6.6-1.2c-3.4,2.8,0.2,12.6,6.3,11.6L45.1,32.4z"/>
		<path class="st5" d="M43.2,42.2c0,1-0.8,1.8-1.7,1.8c-1,0-1.8-0.8-1.8-1.7c0-1,0.8-1.8,1.7-1.8l0,0C42.5,40.5,43.2,41.3,43.2,42.2
			L43.2,42.2z"/>
		<path class="st6" d="M44.2,39.4c-0.8-2.7-2.8-4.8-5.3-5.9c0,0,3.7,3.5,4,6.2c0,0.4,0.3,0.6,0.7,0.6h0.1c0.4,0,0.6-0.3,0.6-0.7
			C44.2,39.5,44.2,39.5,44.2,39.4z"/>
		<path class="st4" d="M75.9,32.4c0,0,3.7-3.6,6.6-1.2c3.4,2.8-0.2,12.6-6.3,11.6L75.9,32.4z"/>
		<path class="st5" d="M81.9,42.2c0,1-0.8,1.8-1.7,1.8c-1,0-1.8-0.8-1.8-1.7c0-1,0.8-1.8,1.7-1.8l0,0C81.1,40.5,81.9,41.3,81.9,42.2
			z"/>
		<path class="st6" d="M76.9,39.4c0.8-2.7,2.8-4.8,5.3-5.9c0,0-3.7,3.5-4,6.2c0,0.4-0.3,0.6-0.7,0.6h-0.1c-0.4,0-0.7-0.3-0.6-0.7
			C76.9,39.6,76.9,39.5,76.9,39.4z"/>
		<path class="st3" d="M68.5,53.5l-0.2,4.8l-0.3,6c0,0-1.2,2.2-6.6,2.2S54.9,65,54.9,65l-0.2-2.7L54,53.5H68.5z"/>
		<path class="st6" d="M68.5,53.5l-0.2,4.8c-2.2,1.7-7.5,5-13.6,4L54,53.5H68.5z"/>
		<path class="st3" d="M80.1,28.6c0,0.6-0.1,1.2-0.2,1.8c-1.3,12.3-5.1,27.9-18.6,27.9c-13.2,0-18.5-14.7-20.2-26.7
			c-0.1-0.9-0.2-1.7-0.3-2.6C39.7,18.2,47.4,8.6,58.1,7.5c0.6-0.1,1.2-0.1,1.8-0.1h1c8.3,0.1,15.6,5.4,18.2,13.2
			c0.3,0.9,0.6,1.8,0.7,2.8C80.2,25.1,80.3,26.9,80.1,28.6z"/>
		<path class="st0" d="M53,33.7c-1.2,0.2-2.3-0.7-2.5-1.9l0,0c-0.1-0.4,0-0.8,0.2-1.2c-1.8-0.2-1.8-1.3-1.8-1.3
			c0.3,0.5,2.4,0.2,3.3,0.1l0,0h0.3h0.1c1.2,0.1,2.2,1.1,2.1,2.3C54.6,32.7,53.9,33.5,53,33.7z"/>
		<path class="st6" d="M61.2,52.8c-1-0.1-2.1-0.4-3-0.9c-0.3-0.1-0.4-0.4-0.3-0.7c0.1-0.3,0.4-0.4,0.7-0.3c0,0,0.1,0,0.1,0.1
			c2.1,1.1,4.5,1.1,6.6-0.1c0.3-0.1,0.6,0,0.7,0.2s0,0.5-0.1,0.6C64.4,52.7,62.8,53,61.2,52.8z"/>
		<path class="st6" d="M62.8,40.5h-2.6c-0.3,0-0.5-0.2-0.5-0.5s0.2-0.5,0.5-0.5h2.6h0.1v-0.1l-2.2-7.5c-0.1-0.3,0.1-0.6,0.4-0.7
			c0.3-0.1,0.6,0.1,0.7,0.3l0,0L64,39c0.1,0.4,0,0.8-0.2,1.1C63.5,40.3,63.1,40.5,62.8,40.5z"/>
		<path id="eyebrow-left" class="st0" d="M55.8,23.8L55.8,23.8c0.1,0.5-0.3,1.1-0.8,1.1c-0.1,0-0.1,0-0.2,0c-2,0.1-6.3,0.4-8.3,2.6
			c0,0,0.7-3.8,8.2-4.7C55.2,22.8,55.7,23.2,55.8,23.8L55.8,23.8z"/>
		<path id="eyebrow-right" class="st0" d="M66.4,23.6L66.4,23.6c-0.1,0.5,0.3,1,0.9,1.1h0.1c2,0,6.3,0.3,8.4,2.4
			c0,0-0.8-3.7-8.3-4.4C67,22.6,66.5,23,66.4,23.6L66.4,23.6z"/>
		<path class="st0" d="M68.9,33.4c1.2,0.2,2.3-0.7,2.5-1.9c0.1-0.4,0-0.8-0.2-1.2C73,30.1,73,29,73,29c-0.3,0.5-2.4,0.2-3.3,0.1l0,0
			h-0.3h-0.1c-1.2-0.1-2.3,0.8-2.4,2C66.8,32.3,67.7,33.4,68.9,33.4L68.9,33.4z"/>
		<path class="st0" d="M77.8,23.2c-5.1-0.4-18.2-4.5-30.1-8.8c0,0,1,12.2-6,18.3c-0.1-0.4-0.3-0.9-0.5-1.3c-0.1-0.9-0.2-1.7-0.3-2.6
			C39.7,18.2,47.5,8.6,58.2,7.5c0.6-0.1,1.2-0.1,1.7-0.1h1c8.3,0.1,15.6,5.4,18.2,13.2c0.3,0.9,0.6,1.8,0.7,2.8
			C79.9,23.4,79.1,23.4,77.8,23.2z"/>
		<path class="st0" d="M80.1,28.6c0,0.6-0.1,1.2-0.2,1.8c-1.6-0.9-2-4.7-2.1-7.1c-0.1-1.2,0-2,0-2s0.1-0.4,1.4-0.6
			c0.3,0.9,0.6,1.8,0.7,2.8C80.2,25.1,80.3,26.9,80.1,28.6z"/>
	</g>
</g>
</svg>
